<svg width="250" height="80" viewBox="0 0 250 80" fill="none" xmlns="http://www.w3.org/2000/svg">
<path d="M13.1553 25.5263H38.9603V38.5345H0V20.076C0 8.97929 9.08081 0 20.293 0H38.9603V13.0082H20.9672C16.6548 13.0082 13.1553 16.4686 13.1553 20.7328V25.5263Z" fill="#131A3F"/>
<path d="M17.9931 54.4835H13.1553V80H0V41.4753H18.6672C29.8795 41.4753 38.9603 50.4546 38.9603 61.5415V80H25.805V62.2081C25.805 57.9439 22.3055 54.4835 17.9931 54.4835Z" fill="#EEA520"/>
<path d="M83.8191 30.2904H69.8906V36.5445H83.5415V46.0434H69.8906V59.2182H59.9572V20.7916H83.8191V30.2904Z" fill="#EEA520"/>
<path d="M121.788 20.7916L108.692 44.4455V59.2084H98.7588V44.5534L85.663 20.7916H96.8158L103.696 35.0055L110.635 20.7916H121.788Z" fill="#EEA520"/>
<path d="M146.265 20.7916H156.148V59.2084H148.485L134.775 39.8873V59.2084H124.841V20.7916H132.554L146.265 40.1127V20.7916Z" fill="#131A3F"/>
<path d="M172.238 49.9939H187.277V59.2182H162.305V20.7916H187.009V29.9571H172.248V35.28H185.621V44.3377H172.248V49.9939H172.238Z" fill="#131A3F"/>
<path d="M205.815 60.0319C201.711 60.0319 198.301 59.1692 195.604 57.4537C192.898 55.7383 191.014 53.415 189.944 50.484L198.44 45.6023C199.887 49.0038 202.435 50.7095 206.103 50.7095C209.136 50.7095 210.653 49.8468 210.653 48.1314C210.653 46.9942 209.781 46.0826 208.046 45.3866C207.302 45.0925 205.676 44.6024 203.158 43.9064C199.609 42.8869 196.794 41.4459 194.722 39.5932C192.65 37.7503 191.619 35.1722 191.619 31.8784C191.619 28.3299 192.908 25.4577 195.475 23.2619C198.043 21.066 201.255 19.9681 205.102 19.9681C208.353 19.9681 211.248 20.7131 213.756 22.213C216.274 23.7128 218.197 25.889 219.526 28.7416L211.198 33.5743C209.979 30.7217 207.957 29.2905 205.151 29.2905C203.961 29.2905 203.069 29.5258 202.455 30.0061C201.84 30.4865 201.543 31.0844 201.543 31.8196C201.543 32.6627 201.999 33.3783 202.901 33.9566C203.803 34.5448 205.577 35.2212 208.204 35.9858C210.088 36.5347 211.605 37.0445 212.755 37.5248C213.905 38.0051 215.164 38.6913 216.532 39.5834C217.9 40.4852 218.921 41.6322 219.585 43.0437C220.249 44.4553 220.586 46.112 220.586 48.0137C220.586 51.778 219.238 54.7286 216.532 56.846C213.825 58.9732 210.257 60.0319 205.815 60.0319Z" fill="#131A3F"/>
<path d="M250 20.7916V30.2904H240.394V59.2084H230.46V30.2904H220.854V20.7916H250Z" fill="#131A3F"/>
</svg>
