<svg width="15" height="16" viewBox="0 0 15 16" fill="none" xmlns="http://www.w3.org/2000/svg">
<path d="M5.83333 8.83333H0.833333C0.61232 8.83333 0.400358 8.92113 0.244078 9.07741C0.0877973 9.23369 0 9.44565 0 9.66667V14.6667C0 14.8877 0.0877973 15.0996 0.244078 15.2559C0.400358 15.4122 0.61232 15.5 0.833333 15.5H5.83333C6.05435 15.5 6.26631 15.4122 6.42259 15.2559C6.57887 15.0996 6.66667 14.8877 6.66667 14.6667V9.66667C6.66667 9.44565 6.57887 9.23369 6.42259 9.07741C6.26631 8.92113 6.05435 8.83333 5.83333 8.83333ZM5 13.8333H1.66667V10.5H5V13.8333ZM14.1667 0.5H9.16667C8.94565 0.5 8.73369 0.587797 8.57741 0.744078C8.42113 0.900358 8.33333 1.11232 8.33333 1.33333V6.33333C8.33333 6.55435 8.42113 6.76631 8.57741 6.92259C8.73369 7.07887 8.94565 7.16667 9.16667 7.16667H14.1667C14.3877 7.16667 14.5996 7.07887 14.7559 6.92259C14.9122 6.76631 15 6.55435 15 6.33333V1.33333C15 1.11232 14.9122 0.900358 14.7559 0.744078C14.5996 0.587797 14.3877 0.5 14.1667 0.5ZM13.3333 5.5H10V2.16667H13.3333V5.5ZM14.1667 11.3333H12.5V9.66667C12.5 9.44565 12.4122 9.23369 12.2559 9.07741C12.0996 8.92113 11.8877 8.83333 11.6667 8.83333C11.4457 8.83333 11.2337 8.92113 11.0774 9.07741C10.9211 9.23369 10.8333 9.44565 10.8333 9.66667V11.3333H9.16667C8.94565 11.3333 8.73369 11.4211 8.57741 11.5774C8.42113 11.7337 8.33333 11.9457 8.33333 12.1667C8.33333 12.3877 8.42113 12.5996 8.57741 12.7559C8.73369 12.9122 8.94565 13 9.16667 13H10.8333V14.6667C10.8333 14.8877 10.9211 15.0996 11.0774 15.2559C11.2337 15.4122 11.4457 15.5 11.6667 15.5C11.8877 15.5 12.0996 15.4122 12.2559 15.2559C12.4122 15.0996 12.5 14.8877 12.5 14.6667V13H14.1667C14.3877 13 14.5996 12.9122 14.7559 12.7559C14.9122 12.5996 15 12.3877 15 12.1667C15 11.9457 14.9122 11.7337 14.7559 11.5774C14.5996 11.4211 14.3877 11.3333 14.1667 11.3333ZM5.83333 0.5H0.833333C0.61232 0.5 0.400358 0.587797 0.244078 0.744078C0.0877973 0.900358 0 1.11232 0 1.33333V6.33333C0 6.55435 0.0877973 6.76631 0.244078 6.92259C0.400358 7.07887 0.61232 7.16667 0.833333 7.16667H5.83333C6.05435 7.16667 6.26631 7.07887 6.42259 6.92259C6.57887 6.76631 6.66667 6.55435 6.66667 6.33333V1.33333C6.66667 1.11232 6.57887 0.900358 6.42259 0.744078C6.26631 0.587797 6.05435 0.5 5.83333 0.5ZM5 5.5H1.66667V2.16667H5V5.5Z" fill="#EEA520"/>
</svg>
