<svg width="150" height="48" viewBox="0 0 150 48" fill="none" xmlns="http://www.w3.org/2000/svg">
<path d="M8.34055 15.3158H23.7203V23.1207H0.5V12.0456C0.5 5.38757 5.91217 0 12.5947 0H23.7203V7.80493H12.9964C10.4262 7.80493 8.34055 9.88114 8.34055 12.4397V15.3158Z" fill="#131A3F"/>
<path d="M11.2239 32.6901H8.34055V48H0.5V24.8852H11.6257C18.3082 24.8852 23.7203 30.2728 23.7203 36.9249V48H15.8798V37.3248C15.8798 34.7663 13.7941 32.6901 11.2239 32.6901Z" fill="#EEA520"/>
<path d="M50.4562 18.1742H42.1548V21.9267H50.2907V27.626H42.1548V35.5309H36.2345V12.4749H50.4562V18.1742Z" fill="#EEA520"/>
<path d="M73.0857 12.4749L65.2806 26.6673V35.5251H59.3603V26.732L51.5552 12.4749H58.2022L62.3027 21.0033L66.4386 12.4749H73.0857Z" fill="#EEA520"/>
<path d="M87.6737 12.4749H93.5644V35.5251H88.9972L80.8258 23.9324V35.5251H74.9055V12.4749H79.5023L87.6737 24.0676V12.4749Z" fill="#131A3F"/>
<path d="M103.154 29.9963H112.117V35.5309H97.2336V12.4749H111.958V17.9743H103.16V21.168H111.13V26.6026H103.16V29.9963H103.154Z" fill="#131A3F"/>
<path d="M123.166 36.0191C120.72 36.0191 118.687 35.5015 117.08 34.4722C115.467 33.443 114.345 32.049 113.706 30.2904L118.77 27.3614C119.633 29.4023 121.151 30.4257 123.337 30.4257C125.145 30.4257 126.049 29.9081 126.049 28.8788C126.049 28.1965 125.529 27.6496 124.495 27.232C124.052 27.0555 123.083 26.7614 121.582 26.3438C119.467 25.7321 117.789 24.8675 116.554 23.7559C115.319 22.6502 114.705 21.1033 114.705 19.1271C114.705 16.9979 115.473 15.2746 117.003 13.9571C118.534 12.6396 120.448 11.9809 122.741 11.9809C124.678 11.9809 126.404 12.4279 127.899 13.3278C129.399 14.2277 130.546 15.5334 131.337 17.2449L126.374 20.1446C125.647 18.433 124.442 17.5743 122.77 17.5743C122.061 17.5743 121.529 17.7155 121.163 18.0037C120.797 18.2919 120.619 18.6507 120.619 19.0918C120.619 19.5976 120.891 20.027 121.429 20.374C121.966 20.7269 123.024 21.1327 124.59 21.5915C125.712 21.9208 126.616 22.2267 127.302 22.5149C127.987 22.8031 128.738 23.2148 129.553 23.75C130.368 24.2911 130.977 24.9793 131.373 25.8262C131.769 26.6732 131.97 27.6672 131.97 28.8082C131.97 31.0668 131.166 32.8372 129.553 34.1076C127.94 35.3839 125.813 36.0191 123.166 36.0191Z" fill="#131A3F"/>
<path d="M149.5 12.4749V18.1742H143.775V35.5251H137.854V18.1742H132.129V12.4749H149.5Z" fill="#131A3F"/>
</svg>
